[img]http://img811.imageshack.us/img811/2438/friendse.jpg[/img]
[code]
General:

Complete name                    : Friends with Benefits 2011 TS XViD AC3 - SCR0N.avi
Format                           : AVI
Format/Info                      : Audio Video Interleave
File size                        : 1.18 GiB
Duration                         : 1h 42mn
Overall bit rate                 : 1 642 Kbps

Video:
ID                               : 0
Format                           : MPEG-4 Visual
Format profile                   : Advanced Simple@L5
Format settings, BVOP            : Yes
Format settings, QPel            : No
Format settings, GMC             : No warppoints
Format settings, Matrix          : Default (H.263)
Muxing mode                      : Packed bitstream
Codec ID                         : XVID
Codec ID/Hint                    : XviD
Duration                         : 1h 42mn
Bit rate                         : 1 315 Kbps
Width                            : 720 pixels
Height                           : 304 pixels
Display aspect ratio             : 2.35:1
Frame rate                       : 25.000 fps
Color space                      : YUV
Chroma subsampling               : 4:2:0
Bit depth                        : 8 bits
Scan type                        : Progressive
Bits/(Pixel*Frame)               : 0.240
Stream size                      : 966 MiB (80%)

Audio 1:
ID                               : 1
Format                           : AC-3
Format/Info                      : Audio Coding 3
Mode extension                   : CM (complete main)
Codec ID                         : 2000
Duration                         : 1h 42mn
Bit rate mode                    : Constant
Bit rate                         : 320 Kbps
Channel(s)                       : 2 channels
Channel positions                : Front: L R
Sampling rate                    : 44.1 KHz
Bit depth                        : 16 bits
Stream size                      : 235 MiB (19%)
Alignment                        : Aligned on interleaves
Interleave, duration             : 70 ms (1.74 video frames)
Interleave, preload duration     : 208 ms

Justin Timberlake as Dylan 
Mila Kunis as Jamie 
Patricia Clarkson as Lorna 
Jenna Elfman as Annie 
Bryan Greenberg as Parker 
Richard Jenkins as Mr. Harper 
Woody Harrelson as Tommy 
Nolan Gould as Sam 
Andy Samberg as Quincy 
Shaun White as Himself 


SOURCE
Video : russian video 
Audio : imagine audio 

IMDB : http://www.imdb.com/title/tt1632708


SCR0N is looking for silver supplier,cammers,syncers,Audio and anymore stuff.....
If yall got anything to offer...holler us at scron@hushmail.com 
[/code]
Screens:
[img]http://img832.imageshack.us/img832/3343/50383863.jpg[/img]
[img]http://img847.imageshack.us/img847/199/61142967.jpg[/img]
[img]http://img52.imageshack.us/img52/3331/49714112.jpg[/img]
[img]http://img824.imageshack.us/img824/8765/62149232.jpg[/img]
[img]http://img651.imageshack.us/img651/45/62780069.jpg[/img]